<svg width="10" height="13" viewBox="0 0 10 13" fill="none" xmlns="http://www.w3.org/2000/svg">
<path d="M9.23533 11.5965C8.92764 12.0773 8.29681 12.2319 7.80165 11.948L0.845342 7.95919C0.322483 7.65938 0 7.10273 0 6.50001C0 5.8973 0.322483 5.34064 0.845342 5.04083L7.80165 1.05203C8.29681 0.76811 8.92764 0.92277 9.23533 1.40352C9.56487 1.91844 9.39683 2.60431 8.86658 2.90857L1.90214 6.90488C1.59095 7.08345 1.20303 6.8588 1.20303 6.50001C1.20303 6.14123 1.59095 5.91658 1.90214 6.09514L8.86659 10.0915C9.39683 10.3957 9.56487 11.0816 9.23533 11.5965Z" fill="#04364A"/>
</svg>
