<svg width="22" height="23" viewBox="0 0 22 23" fill="none" xmlns="http://www.w3.org/2000/svg">
<path d="M16.625 6.01137V6.02387M1 6.63637C1 5.31029 1.52678 4.03852 2.46447 3.10083C3.40215 2.16315 4.67392 1.63637 6 1.63637H16C17.3261 1.63637 18.5979 2.16315 19.5355 3.10083C20.4732 4.03852 21 5.31029 21 6.63637V16.6364C21 17.9625 20.4732 19.2342 19.5355 20.1719C18.5979 21.1096 17.3261 21.6364 16 21.6364H6C4.67392 21.6364 3.40215 21.1096 2.46447 20.1719C1.52678 19.2342 1 17.9625 1 16.6364V6.63637ZM7.25 11.6364C7.25 12.6309 7.64509 13.5848 8.34835 14.288C9.05161 14.9913 10.0054 15.3864 11 15.3864C11.9946 15.3864 12.9484 14.9913 13.6517 14.288C14.3549 13.5848 14.75 12.6309 14.75 11.6364C14.75 10.6418 14.3549 9.68798 13.6517 8.98472C12.9484 8.28146 11.9946 7.88637 11 7.88637C10.0054 7.88637 9.05161 8.28146 8.34835 8.98472C7.64509 9.68798 7.25 10.6418 7.25 11.6364Z" stroke="#6ED6CF" stroke-width="2" stroke-linecap="round" stroke-linejoin="round"/>
</svg>
