<svg width="80" height="46" viewBox="0 0 80 46" fill="none" xmlns="http://www.w3.org/2000/svg">
<path d="M26.4084 18.4278V45.6584H23.5547V29.9392C22.7486 31.0677 21.62 32.0351 20.169 32.8412C18.7503 33.6473 16.8317 34.0504 14.4134 34.0504C11.8983 34.0504 9.72177 33.6151 7.88382 32.7445C6.07812 31.8738 4.59486 30.6808 3.43406 29.1653C2.27325 27.6176 1.40264 25.8119 0.822239 23.7482C0.27408 21.6523 0 19.4113 0 17.0252C0 14.6068 0.386936 12.3658 1.16081 10.3022C1.93468 8.23851 3.031 6.44893 4.44976 4.93343C5.90077 3.38569 7.62586 2.17651 9.62503 1.30591C11.6242 0.435302 13.8652 0 16.348 0C19.8305 0 22.5229 0.612648 24.4253 1.83795C26.3278 3.06324 27.279 4.6916 27.279 6.72301C27.279 7.62586 27.0855 8.46422 26.6986 9.2381C26.3116 9.97972 25.6829 10.6407 24.8123 11.2211C23.9739 11.7693 22.8937 12.2046 21.5717 12.5271C20.2496 12.8173 18.6697 12.9624 16.8317 12.9624H3.38569C3.09549 14.2199 2.95039 15.5742 2.95039 17.0252C2.95039 19.1533 3.19222 21.1041 3.67589 22.8776C4.15956 24.6188 4.86894 26.1182 5.80404 27.3757C6.77138 28.6333 7.96443 29.6167 9.3832 30.3261C10.8342 31.0355 12.5109 31.3902 14.4134 31.3902C16.5415 31.3902 18.2182 31.0194 19.4435 30.2777C20.6688 29.5039 21.5878 28.6171 22.2005 27.6176C22.8131 26.618 23.1839 25.6345 23.3129 24.6672C23.4741 23.6676 23.5547 22.926 23.5547 22.4423V18.4278H26.4084ZM16.348 2.66018C13.446 2.66018 10.9471 3.35344 8.85116 4.73996C6.7875 6.12648 5.23976 8.02892 4.20793 10.4473H16.8317C18.2827 10.4473 19.4758 10.3667 20.4109 10.2054C21.3782 10.0442 22.136 9.80238 22.6841 9.47993C23.2645 9.15748 23.6676 8.77055 23.8933 8.31912C24.119 7.83545 24.2319 7.30342 24.2319 6.72301C24.2319 5.36874 23.5225 4.35303 22.1037 3.67589C20.685 2.99875 18.7664 2.66018 16.348 2.66018Z" fill="#6ED6CF"/>
<path d="M33.4701 26.8995C33.3808 26.8895 33.2816 26.8747 33.1724 26.8548C33.0831 26.835 32.979 26.8201 32.8599 26.8102C32.7508 26.8003 32.6268 26.7953 32.4879 26.7953C32.0811 26.7953 31.714 26.9243 31.3866 27.1822C31.0592 27.4402 30.7665 27.7974 30.5085 28.2537V33.5667H29.69V28.3133C29.69 27.9164 29.6404 27.5741 29.5412 27.2864C29.442 26.9987 29.2932 26.7506 29.0947 26.5423L29.6007 26.0512C29.8289 26.2199 30.0075 26.4183 30.1365 26.6465C30.2655 26.8647 30.3597 27.1029 30.4192 27.3608C30.6772 26.9044 30.9798 26.5671 31.327 26.3488C31.6743 26.1206 32.096 26.0065 32.592 26.0065C32.7012 26.0065 32.8103 26.0115 32.9194 26.0214C33.0286 26.0313 33.1228 26.0462 33.2022 26.0661C33.3014 26.0859 33.3907 26.1058 33.4701 26.1256V26.8995Z" fill="white"/>
<path d="M37.9307 33.7155C37.3751 33.7155 36.8691 33.6212 36.4127 33.4327C35.9563 33.2442 35.5644 32.9813 35.237 32.644C34.9195 32.2967 34.6715 31.89 34.4929 31.4236C34.3143 30.9573 34.225 30.4464 34.225 29.8908C34.225 29.3352 34.3143 28.8242 34.4929 28.3579C34.6715 27.8817 34.9195 27.47 35.237 27.1227C35.5644 26.7755 35.9563 26.5026 36.4127 26.3042C36.8691 26.1058 37.3751 26.0065 37.9307 26.0065C38.4863 26.0065 38.9873 26.1058 39.4338 26.3042C39.8901 26.4927 40.2771 26.7606 40.5946 27.1078C40.922 27.4451 41.175 27.8519 41.3536 28.3282C41.5321 28.7945 41.6214 29.3005 41.6214 29.8461C41.6214 30.4017 41.5321 30.9177 41.3536 31.3939C41.175 31.8701 40.922 32.2818 40.5946 32.6291C40.2771 32.9664 39.8901 33.2343 39.4338 33.4327C38.9873 33.6212 38.4863 33.7155 37.9307 33.7155ZM37.9307 26.7804C37.4941 26.7804 37.1022 26.8548 36.755 27.0036C36.4077 27.1525 36.1051 27.3608 35.8472 27.6287C35.5991 27.8966 35.4057 28.219 35.2667 28.596C35.1378 28.9731 35.0733 29.3898 35.0733 29.8461C35.0733 30.3124 35.1378 30.7391 35.2667 31.126C35.4057 31.503 35.5991 31.8255 35.8472 32.0933C36.1051 32.3612 36.4077 32.5696 36.755 32.7184C37.1022 32.8672 37.4941 32.9416 37.9307 32.9416C38.3573 32.9416 38.7442 32.8672 39.0915 32.7184C39.4486 32.5596 39.7512 32.3463 39.9993 32.0785C40.2473 31.8007 40.4358 31.4733 40.5648 31.0962C40.7037 30.7093 40.7731 30.2827 40.7731 29.8164C40.7731 29.36 40.7037 28.9482 40.5648 28.5812C40.4358 28.2041 40.2473 27.8817 39.9993 27.6138C39.7512 27.3459 39.4486 27.1425 39.0915 27.0036C38.7442 26.8548 38.3573 26.7804 37.9307 26.7804Z" fill="white"/>
<path d="M47.1379 33.6857C46.88 33.7453 46.6468 33.775 46.4385 33.775C46.121 33.775 45.8432 33.7155 45.6051 33.5964C45.3769 33.4873 45.1785 33.3385 45.0098 33.15C44.851 32.9615 44.7171 32.7482 44.608 32.51C44.5088 32.2719 44.4294 32.0239 44.3699 31.7659L43.0305 26.3042L43.8341 26.081L45.1735 31.5427C45.2727 31.9693 45.4215 32.3166 45.62 32.5845C45.8184 32.8523 46.1061 33.0111 46.4831 33.0607L47.7481 29.3848V26.1554H48.5815V29.3848L49.3405 31.5427C49.4794 31.9495 49.6381 32.2918 49.8167 32.5696C50.0052 32.8374 50.2731 32.9962 50.6204 33.0458L52.4658 26.081L53.2396 26.3339L51.3049 33.6857C51.047 33.7453 50.8138 33.775 50.6055 33.775C50.3078 33.775 50.0449 33.7155 49.8167 33.5964C49.5885 33.4774 49.3901 33.3236 49.2214 33.1351C49.0627 32.9466 48.9238 32.7333 48.8047 32.4952C48.6956 32.257 48.6063 32.014 48.5369 31.7659L48.1499 30.501L47.1379 33.6857Z" fill="white"/>
<path d="M60.2882 33.5667C60.1294 33.269 60.0253 32.9367 59.9757 32.5696C59.9261 32.1926 59.9012 31.8602 59.9012 31.5725C59.9012 31.3344 59.9062 31.1111 59.9161 30.9028C59.926 30.6944 59.936 30.4761 59.9459 30.248C59.9657 30.0098 59.9806 29.7568 59.9905 29.489C60.0104 29.2211 60.0203 28.9135 60.0203 28.5663C60.0203 27.9511 59.8814 27.4997 59.6036 27.212C59.3258 26.9243 58.9041 26.7804 58.3386 26.7804C57.8029 26.7804 57.3514 26.9144 56.9843 27.1822C56.6173 27.4402 56.2601 27.8073 55.9128 28.2835V33.5667H55.0943V28.3133C55.0943 27.9164 55.0447 27.5741 54.9455 27.2864C54.8463 26.9987 54.6975 26.7506 54.499 26.5423L55.005 26.0512C55.2431 26.2199 55.4267 26.4282 55.5557 26.6762C55.6846 26.9144 55.7739 27.1624 55.8235 27.4203C56.1509 26.9441 56.523 26.5919 56.9397 26.3637C57.3663 26.1256 57.8326 26.0065 58.3386 26.0065C59.2117 26.0065 59.8467 26.2149 60.2435 26.6316C60.6404 27.0483 60.8388 27.6386 60.8388 28.4026C60.8388 28.7597 60.8289 29.0871 60.8091 29.3848C60.7991 29.6725 60.7843 29.9454 60.7644 30.2033C60.7545 30.4613 60.7446 30.7093 60.7346 30.9474C60.7247 31.1855 60.7198 31.4236 60.7198 31.6618C60.7198 31.9892 60.7446 32.3017 60.7942 32.5993C60.8438 32.897 60.938 33.2194 61.0769 33.5667H60.2882Z" fill="white"/>
<path d="M63.2181 26.0512C63.4066 26.1901 63.5554 26.3488 63.6646 26.5274C63.7836 26.6961 63.8779 26.8796 63.9473 27.0781C64.0168 27.2765 64.0614 27.4799 64.0813 27.6882C64.111 27.8966 64.1259 28.1049 64.1259 28.3133V33.5667H63.3074V28.3133C63.3074 27.9164 63.2578 27.5741 63.1586 27.2864C63.0594 26.9987 62.9105 26.7506 62.7121 26.5423L63.2181 26.0512ZM62.9056 23.7147C62.9056 23.5163 62.9701 23.3526 63.099 23.2236C63.2379 23.0847 63.4017 23.0152 63.5902 23.0152C63.7886 23.0152 63.9523 23.0847 64.0813 23.2236C64.2202 23.3526 64.2896 23.5163 64.2896 23.7147C64.2896 23.9032 64.2202 24.0669 64.0813 24.2058C63.9523 24.3348 63.7886 24.3993 63.5902 24.3993C63.4017 24.3993 63.2379 24.3348 63.099 24.2058C62.9701 24.0669 62.9056 23.9032 62.9056 23.7147Z" fill="white"/>
<path d="M72.1374 33.6857C71.8894 33.5071 71.7009 33.2988 71.5719 33.0607C71.4528 32.8126 71.3685 32.5497 71.3189 32.2719C70.6938 33.2343 69.8753 33.7155 68.8633 33.7155C68.0002 33.7155 67.3801 33.5071 67.0031 33.0904C66.626 32.6737 66.4375 32.0834 66.4375 31.3195C66.4375 30.9623 66.4425 30.6399 66.4524 30.3521C66.4623 30.0545 66.4723 29.7767 66.4822 29.5187C66.502 29.2608 66.5169 29.0127 66.5268 28.7746C66.5467 28.5365 66.5566 28.2984 66.5566 28.0603C66.5566 27.7726 66.5318 27.4799 66.4822 27.1822C66.4425 26.8846 66.3582 26.5919 66.2292 26.3042L66.9435 26.0661C67.0328 26.205 67.1023 26.3637 67.1519 26.5423C67.2114 26.7209 67.2561 26.9044 67.2858 27.0929C67.3255 27.2814 67.3503 27.47 67.3602 27.6585C67.3701 27.837 67.3751 28.0007 67.3751 28.1496C67.3751 28.3877 67.3652 28.6159 67.3453 28.8342C67.3354 29.0425 67.3205 29.2608 67.3007 29.489C67.2908 29.7172 67.2809 29.9652 67.2709 30.2331C67.261 30.501 67.2561 30.8085 67.2561 31.1558C67.2561 31.7709 67.3801 32.2223 67.6281 32.51C67.8861 32.7978 68.2978 32.9416 68.8633 32.9416C69.3892 32.9416 69.8307 32.8077 70.1878 32.5398C70.545 32.262 70.8972 31.885 71.2445 31.4088V26.1554H72.063V31.4236C72.063 32.1876 72.2565 32.7779 72.6434 33.1946L72.1374 33.6857Z" fill="white"/>
<path d="M74.327 32.2273C74.585 32.3959 74.8975 32.5596 75.2646 32.7184C75.6416 32.8672 76.0683 32.9416 76.5445 32.9416C76.7528 32.9416 76.9513 32.9218 77.1398 32.8821C77.3382 32.8325 77.5118 32.763 77.6607 32.6737C77.8095 32.5745 77.9236 32.4456 78.0029 32.2868C78.0922 32.1281 78.1369 31.9346 78.1369 31.7064C78.1369 31.3592 78.0426 31.0863 77.8541 30.8879C77.6656 30.6895 77.4275 30.5258 77.1398 30.3968C76.862 30.2579 76.5594 30.1339 76.232 30.0247C75.9046 29.9156 75.597 29.7767 75.3093 29.608C75.0315 29.4294 74.7983 29.2012 74.6098 28.9234C74.4213 28.6456 74.327 28.2736 74.327 27.8073C74.327 27.5692 74.3767 27.341 74.4759 27.1227C74.5751 26.9044 74.7189 26.7159 74.9075 26.5572C75.096 26.3885 75.3242 26.2546 75.592 26.1554C75.8599 26.0561 76.1625 26.0065 76.4998 26.0065C76.7975 26.0065 77.0852 26.0165 77.363 26.0363C77.6408 26.0462 77.9484 26.0661 78.2857 26.0958V26.8697C77.5118 26.8102 76.8818 26.7804 76.3957 26.7804C76.0087 26.7804 75.7111 26.8846 75.5027 27.0929C75.2944 27.3013 75.1902 27.5394 75.1902 27.8073C75.1902 28.1545 75.2845 28.4274 75.473 28.6258C75.6615 28.8143 75.8946 28.978 76.1724 29.1169C76.4602 29.2459 76.7677 29.3699 77.0951 29.489C77.4225 29.5981 77.7251 29.742 78.0029 29.9205C78.2907 30.0892 78.5288 30.3124 78.7173 30.5902C78.9058 30.868 79 31.2401 79 31.7064C79 32.0735 78.9256 32.386 78.7768 32.644C78.6379 32.892 78.4444 33.0954 78.1964 33.2541C77.9583 33.4129 77.6855 33.527 77.3779 33.5964C77.0703 33.6758 76.7528 33.7155 76.4254 33.7155C75.9294 33.7155 75.4631 33.6312 75.0265 33.4625C74.59 33.2938 74.2179 33.0904 73.9104 32.8523L74.327 32.2273Z" fill="white"/>
<path d="M33.4701 26.8995C33.3808 26.8895 33.2816 26.8747 33.1724 26.8548C33.0831 26.835 32.979 26.8201 32.8599 26.8102C32.7508 26.8003 32.6268 26.7953 32.4879 26.7953C32.0811 26.7953 31.714 26.9243 31.3866 27.1822C31.0592 27.4402 30.7665 27.7974 30.5085 28.2537V33.5667H29.69V28.3133C29.69 27.9164 29.6404 27.5741 29.5412 27.2864C29.442 26.9987 29.2932 26.7506 29.0947 26.5423L29.6007 26.0512C29.8289 26.2199 30.0075 26.4183 30.1365 26.6465C30.2655 26.8647 30.3597 27.1029 30.4192 27.3608C30.6772 26.9044 30.9798 26.5671 31.327 26.3488C31.6743 26.1206 32.096 26.0065 32.592 26.0065C32.7012 26.0065 32.8103 26.0115 32.9194 26.0214C33.0286 26.0313 33.1228 26.0462 33.2022 26.0661C33.3014 26.0859 33.3907 26.1058 33.4701 26.1256V26.8995Z" stroke="white"/>
<path d="M37.9307 33.7155C37.3751 33.7155 36.8691 33.6212 36.4127 33.4327C35.9563 33.2442 35.5644 32.9813 35.237 32.644C34.9195 32.2967 34.6715 31.89 34.4929 31.4236C34.3143 30.9573 34.225 30.4464 34.225 29.8908C34.225 29.3352 34.3143 28.8242 34.4929 28.3579C34.6715 27.8817 34.9195 27.47 35.237 27.1227C35.5644 26.7755 35.9563 26.5026 36.4127 26.3042C36.8691 26.1058 37.3751 26.0065 37.9307 26.0065C38.4863 26.0065 38.9873 26.1058 39.4338 26.3042C39.8901 26.4927 40.2771 26.7606 40.5946 27.1078C40.922 27.4451 41.175 27.8519 41.3536 28.3282C41.5321 28.7945 41.6214 29.3005 41.6214 29.8461C41.6214 30.4017 41.5321 30.9177 41.3536 31.3939C41.175 31.8701 40.922 32.2818 40.5946 32.6291C40.2771 32.9664 39.8901 33.2343 39.4338 33.4327C38.9873 33.6212 38.4863 33.7155 37.9307 33.7155ZM37.9307 26.7804C37.4941 26.7804 37.1022 26.8548 36.755 27.0036C36.4077 27.1525 36.1051 27.3608 35.8472 27.6287C35.5991 27.8966 35.4057 28.219 35.2667 28.596C35.1378 28.9731 35.0733 29.3898 35.0733 29.8461C35.0733 30.3124 35.1378 30.7391 35.2667 31.126C35.4057 31.503 35.5991 31.8255 35.8472 32.0933C36.1051 32.3612 36.4077 32.5696 36.755 32.7184C37.1022 32.8672 37.4941 32.9416 37.9307 32.9416C38.3573 32.9416 38.7442 32.8672 39.0915 32.7184C39.4486 32.5596 39.7512 32.3463 39.9993 32.0785C40.2473 31.8007 40.4358 31.4733 40.5648 31.0962C40.7037 30.7093 40.7731 30.2827 40.7731 29.8164C40.7731 29.36 40.7037 28.9482 40.5648 28.5812C40.4358 28.2041 40.2473 27.8817 39.9993 27.6138C39.7512 27.3459 39.4486 27.1425 39.0915 27.0036C38.7442 26.8548 38.3573 26.7804 37.9307 26.7804Z" stroke="white"/>
<path d="M47.1379 33.6857C46.88 33.7453 46.6468 33.775 46.4385 33.775C46.121 33.775 45.8432 33.7155 45.6051 33.5964C45.3769 33.4873 45.1785 33.3385 45.0098 33.15C44.851 32.9615 44.7171 32.7482 44.608 32.51C44.5088 32.2719 44.4294 32.0239 44.3699 31.7659L43.0305 26.3042L43.8341 26.081L45.1735 31.5427C45.2727 31.9693 45.4215 32.3166 45.62 32.5845C45.8184 32.8523 46.1061 33.0111 46.4831 33.0607L47.7481 29.3848V26.1554H48.5815V29.3848L49.3405 31.5427C49.4794 31.9495 49.6381 32.2918 49.8167 32.5696C50.0052 32.8374 50.2731 32.9962 50.6204 33.0458L52.4658 26.081L53.2396 26.3339L51.3049 33.6857C51.047 33.7453 50.8138 33.775 50.6055 33.775C50.3078 33.775 50.0449 33.7155 49.8167 33.5964C49.5885 33.4774 49.3901 33.3236 49.2214 33.1351C49.0627 32.9466 48.9238 32.7333 48.8047 32.4952C48.6956 32.257 48.6063 32.014 48.5369 31.7659L48.1499 30.501L47.1379 33.6857Z" stroke="white"/>
<path d="M60.2882 33.5667C60.1294 33.269 60.0253 32.9367 59.9757 32.5696C59.9261 32.1926 59.9012 31.8602 59.9012 31.5725C59.9012 31.3344 59.9062 31.1111 59.9161 30.9028C59.926 30.6944 59.936 30.4761 59.9459 30.248C59.9657 30.0098 59.9806 29.7568 59.9905 29.489C60.0104 29.2211 60.0203 28.9135 60.0203 28.5663C60.0203 27.9511 59.8814 27.4997 59.6036 27.212C59.3258 26.9243 58.9041 26.7804 58.3386 26.7804C57.8029 26.7804 57.3514 26.9144 56.9843 27.1822C56.6173 27.4402 56.2601 27.8073 55.9128 28.2835V33.5667H55.0943V28.3133C55.0943 27.9164 55.0447 27.5741 54.9455 27.2864C54.8463 26.9987 54.6975 26.7506 54.499 26.5423L55.005 26.0512C55.2431 26.2199 55.4267 26.4282 55.5557 26.6762C55.6846 26.9144 55.7739 27.1624 55.8235 27.4203C56.1509 26.9441 56.523 26.5919 56.9397 26.3637C57.3663 26.1256 57.8326 26.0065 58.3386 26.0065C59.2117 26.0065 59.8467 26.2149 60.2435 26.6316C60.6404 27.0483 60.8388 27.6386 60.8388 28.4026C60.8388 28.7597 60.8289 29.0871 60.8091 29.3848C60.7991 29.6725 60.7843 29.9454 60.7644 30.2033C60.7545 30.4613 60.7446 30.7093 60.7346 30.9474C60.7247 31.1855 60.7198 31.4236 60.7198 31.6618C60.7198 31.9892 60.7446 32.3017 60.7942 32.5993C60.8438 32.897 60.938 33.2194 61.0769 33.5667H60.2882Z" stroke="white"/>
<path d="M63.2181 26.0512C63.4066 26.1901 63.5554 26.3488 63.6646 26.5274C63.7836 26.6961 63.8779 26.8796 63.9473 27.0781C64.0168 27.2765 64.0614 27.4799 64.0813 27.6882C64.111 27.8966 64.1259 28.1049 64.1259 28.3133V33.5667H63.3074V28.3133C63.3074 27.9164 63.2578 27.5741 63.1586 27.2864C63.0594 26.9987 62.9105 26.7506 62.7121 26.5423L63.2181 26.0512ZM62.9056 23.7147C62.9056 23.5163 62.9701 23.3526 63.099 23.2236C63.2379 23.0847 63.4017 23.0152 63.5902 23.0152C63.7886 23.0152 63.9523 23.0847 64.0813 23.2236C64.2202 23.3526 64.2896 23.5163 64.2896 23.7147C64.2896 23.9032 64.2202 24.0669 64.0813 24.2058C63.9523 24.3348 63.7886 24.3993 63.5902 24.3993C63.4017 24.3993 63.2379 24.3348 63.099 24.2058C62.9701 24.0669 62.9056 23.9032 62.9056 23.7147Z" stroke="white"/>
<path d="M72.1374 33.6857C71.8894 33.5071 71.7009 33.2988 71.5719 33.0607C71.4528 32.8126 71.3685 32.5497 71.3189 32.2719C70.6938 33.2343 69.8753 33.7155 68.8633 33.7155C68.0002 33.7155 67.3801 33.5071 67.0031 33.0904C66.626 32.6737 66.4375 32.0834 66.4375 31.3195C66.4375 30.9623 66.4425 30.6399 66.4524 30.3521C66.4623 30.0545 66.4723 29.7767 66.4822 29.5187C66.502 29.2608 66.5169 29.0127 66.5268 28.7746C66.5467 28.5365 66.5566 28.2984 66.5566 28.0603C66.5566 27.7726 66.5318 27.4799 66.4822 27.1822C66.4425 26.8846 66.3582 26.5919 66.2292 26.3042L66.9435 26.0661C67.0328 26.205 67.1023 26.3637 67.1519 26.5423C67.2114 26.7209 67.2561 26.9044 67.2858 27.0929C67.3255 27.2814 67.3503 27.47 67.3602 27.6585C67.3701 27.837 67.3751 28.0007 67.3751 28.1496C67.3751 28.3877 67.3652 28.6159 67.3453 28.8342C67.3354 29.0425 67.3205 29.2608 67.3007 29.489C67.2908 29.7172 67.2809 29.9652 67.2709 30.2331C67.261 30.501 67.2561 30.8085 67.2561 31.1558C67.2561 31.7709 67.3801 32.2223 67.6281 32.51C67.8861 32.7978 68.2978 32.9416 68.8633 32.9416C69.3892 32.9416 69.8307 32.8077 70.1878 32.5398C70.545 32.262 70.8972 31.885 71.2445 31.4088V26.1554H72.063V31.4236C72.063 32.1876 72.2565 32.7779 72.6434 33.1946L72.1374 33.6857Z" stroke="white"/>
<path d="M74.327 32.2273C74.585 32.3959 74.8975 32.5596 75.2646 32.7184C75.6416 32.8672 76.0683 32.9416 76.5445 32.9416C76.7528 32.9416 76.9513 32.9218 77.1398 32.8821C77.3382 32.8325 77.5118 32.763 77.6607 32.6737C77.8095 32.5745 77.9236 32.4456 78.0029 32.2868C78.0922 32.1281 78.1369 31.9346 78.1369 31.7064C78.1369 31.3592 78.0426 31.0863 77.8541 30.8879C77.6656 30.6895 77.4275 30.5258 77.1398 30.3968C76.862 30.2579 76.5594 30.1339 76.232 30.0247C75.9046 29.9156 75.597 29.7767 75.3093 29.608C75.0315 29.4294 74.7983 29.2012 74.6098 28.9234C74.4213 28.6456 74.327 28.2736 74.327 27.8073C74.327 27.5692 74.3767 27.341 74.4759 27.1227C74.5751 26.9044 74.7189 26.7159 74.9075 26.5572C75.096 26.3885 75.3242 26.2546 75.592 26.1554C75.8599 26.0561 76.1625 26.0065 76.4998 26.0065C76.7975 26.0065 77.0852 26.0165 77.363 26.0363C77.6408 26.0462 77.9484 26.0661 78.2857 26.0958V26.8697C77.5118 26.8102 76.8818 26.7804 76.3957 26.7804C76.0087 26.7804 75.7111 26.8846 75.5027 27.0929C75.2944 27.3013 75.1902 27.5394 75.1902 27.8073C75.1902 28.1545 75.2845 28.4274 75.473 28.6258C75.6615 28.8143 75.8946 28.978 76.1724 29.1169C76.4602 29.2459 76.7677 29.3699 77.0951 29.489C77.4225 29.5981 77.7251 29.742 78.0029 29.9205C78.2907 30.0892 78.5288 30.3124 78.7173 30.5902C78.9058 30.868 79 31.2401 79 31.7064C79 32.0735 78.9256 32.386 78.7768 32.644C78.6379 32.892 78.4444 33.0954 78.1964 33.2541C77.9583 33.4129 77.6855 33.527 77.3779 33.5964C77.0703 33.6758 76.7528 33.7155 76.4254 33.7155C75.9294 33.7155 75.4631 33.6312 75.0265 33.4625C74.59 33.2938 74.2179 33.0904 73.9104 32.8523L74.327 32.2273Z" stroke="white"/>
</svg>
