<svg width="80" height="46" viewBox="0 0 80 46" fill="none" xmlns="http://www.w3.org/2000/svg">
<path d="M26.9084 18.4278V45.6584H24.0547V29.9392C23.2486 31.0677 22.12 32.0351 20.669 32.8412C19.2503 33.6473 17.3317 34.0504 14.9134 34.0504C12.3983 34.0504 10.2218 33.6151 8.38382 32.7445C6.57812 31.8738 5.09486 30.6808 3.93406 29.1653C2.77325 27.6176 1.90264 25.8119 1.32224 23.7482C0.77408 21.6523 0.5 19.4113 0.5 17.0252C0.5 14.6068 0.886936 12.3658 1.66081 10.3022C2.43468 8.23851 3.531 6.44893 4.94976 4.93343C6.40077 3.38569 8.12586 2.17651 10.125 1.30591C12.1242 0.435302 14.3652 0 16.848 0C20.3305 0 23.0229 0.612648 24.9253 1.83795C26.8278 3.06324 27.779 4.6916 27.779 6.72301C27.779 7.62586 27.5855 8.46422 27.1986 9.2381C26.8116 9.97972 26.1829 10.6407 25.3123 11.2211C24.4739 11.7693 23.3937 12.2046 22.0717 12.5271C20.7496 12.8173 19.1697 12.9624 17.3317 12.9624H3.88569C3.59549 14.2199 3.45039 15.5742 3.45039 17.0252C3.45039 19.1533 3.69222 21.1041 4.17589 22.8776C4.65956 24.6188 5.36894 26.1182 6.30404 27.3757C7.27138 28.6333 8.46443 29.6167 9.8832 30.3261C11.3342 31.0355 13.0109 31.3902 14.9134 31.3902C17.0415 31.3902 18.7182 31.0194 19.9435 30.2777C21.1688 29.5039 22.0878 28.6171 22.7005 27.6176C23.3131 26.618 23.6839 25.6345 23.8129 24.6672C23.9741 23.6676 24.0547 22.926 24.0547 22.4423V18.4278H26.9084ZM16.848 2.66018C13.946 2.66018 11.4471 3.35344 9.35116 4.73996C7.2875 6.12648 5.73976 8.02892 4.70793 10.4473H17.3317C18.7827 10.4473 19.9758 10.3667 20.9109 10.2054C21.8782 10.0442 22.636 9.80238 23.1841 9.47993C23.7645 9.15748 24.1676 8.77055 24.3933 8.31912C24.619 7.83545 24.7319 7.30342 24.7319 6.72301C24.7319 5.36874 24.0225 4.35303 22.6037 3.67589C21.185 2.99875 19.2664 2.66018 16.848 2.66018Z" fill="#6ED6CF"/>
<path d="M33.9701 26.8995C33.8808 26.8895 33.7816 26.8747 33.6724 26.8548C33.5831 26.835 33.479 26.8201 33.3599 26.8102C33.2508 26.8003 33.1268 26.7953 32.9879 26.7953C32.5811 26.7953 32.214 26.9243 31.8866 27.1822C31.5592 27.4402 31.2665 27.7974 31.0085 28.2537V33.5667H30.19V28.3133C30.19 27.9164 30.1404 27.5741 30.0412 27.2864C29.942 26.9987 29.7932 26.7506 29.5947 26.5423L30.1007 26.0512C30.3289 26.2199 30.5075 26.4183 30.6365 26.6465C30.7655 26.8647 30.8597 27.1029 30.9192 27.3608C31.1772 26.9044 31.4798 26.5671 31.827 26.3488C32.1743 26.1206 32.596 26.0065 33.092 26.0065C33.2012 26.0065 33.3103 26.0115 33.4194 26.0214C33.5286 26.0313 33.6228 26.0462 33.7022 26.0661C33.8014 26.0859 33.8907 26.1058 33.9701 26.1256V26.8995Z" fill="#176B87"/>
<path d="M38.4307 33.7155C37.8751 33.7155 37.3691 33.6212 36.9127 33.4327C36.4563 33.2442 36.0644 32.9813 35.737 32.644C35.4195 32.2967 35.1715 31.89 34.9929 31.4236C34.8143 30.9573 34.725 30.4464 34.725 29.8908C34.725 29.3352 34.8143 28.8242 34.9929 28.3579C35.1715 27.8817 35.4195 27.47 35.737 27.1227C36.0644 26.7755 36.4563 26.5026 36.9127 26.3042C37.3691 26.1058 37.8751 26.0065 38.4307 26.0065C38.9863 26.0065 39.4873 26.1058 39.9338 26.3042C40.3901 26.4927 40.7771 26.7606 41.0946 27.1078C41.422 27.4451 41.675 27.8519 41.8536 28.3282C42.0321 28.7945 42.1214 29.3005 42.1214 29.8461C42.1214 30.4017 42.0321 30.9177 41.8536 31.3939C41.675 31.8701 41.422 32.2818 41.0946 32.6291C40.7771 32.9664 40.3901 33.2343 39.9338 33.4327C39.4873 33.6212 38.9863 33.7155 38.4307 33.7155ZM38.4307 26.7804C37.9941 26.7804 37.6022 26.8548 37.255 27.0036C36.9077 27.1525 36.6051 27.3608 36.3472 27.6287C36.0991 27.8966 35.9057 28.219 35.7667 28.596C35.6378 28.9731 35.5733 29.3898 35.5733 29.8461C35.5733 30.3124 35.6378 30.7391 35.7667 31.126C35.9057 31.503 36.0991 31.8255 36.3472 32.0933C36.6051 32.3612 36.9077 32.5696 37.255 32.7184C37.6022 32.8672 37.9941 32.9416 38.4307 32.9416C38.8573 32.9416 39.2442 32.8672 39.5915 32.7184C39.9486 32.5596 40.2512 32.3463 40.4993 32.0785C40.7473 31.8007 40.9358 31.4733 41.0648 31.0962C41.2037 30.7093 41.2731 30.2827 41.2731 29.8164C41.2731 29.36 41.2037 28.9482 41.0648 28.5812C40.9358 28.2041 40.7473 27.8817 40.4993 27.6138C40.2512 27.3459 39.9486 27.1425 39.5915 27.0036C39.2442 26.8548 38.8573 26.7804 38.4307 26.7804Z" fill="#176B87"/>
<path d="M47.6379 33.6857C47.38 33.7453 47.1468 33.775 46.9385 33.775C46.621 33.775 46.3432 33.7155 46.1051 33.5964C45.8769 33.4873 45.6785 33.3385 45.5098 33.15C45.351 32.9615 45.2171 32.7482 45.108 32.51C45.0088 32.2719 44.9294 32.0239 44.8699 31.7659L43.5305 26.3042L44.3341 26.081L45.6735 31.5427C45.7727 31.9693 45.9215 32.3166 46.12 32.5845C46.3184 32.8523 46.6061 33.0111 46.9831 33.0607L48.2481 29.3848V26.1554H49.0815V29.3848L49.8405 31.5427C49.9794 31.9495 50.1381 32.2918 50.3167 32.5696C50.5052 32.8374 50.7731 32.9962 51.1204 33.0458L52.9658 26.081L53.7396 26.3339L51.8049 33.6857C51.547 33.7453 51.3138 33.775 51.1055 33.775C50.8078 33.775 50.5449 33.7155 50.3167 33.5964C50.0885 33.4774 49.8901 33.3236 49.7214 33.1351C49.5627 32.9466 49.4238 32.7333 49.3047 32.4952C49.1956 32.257 49.1063 32.014 49.0369 31.7659L48.6499 30.501L47.6379 33.6857Z" fill="#176B87"/>
<path d="M60.7882 33.5667C60.6294 33.269 60.5253 32.9367 60.4757 32.5696C60.4261 32.1926 60.4012 31.8602 60.4012 31.5725C60.4012 31.3344 60.4062 31.1111 60.4161 30.9028C60.426 30.6944 60.436 30.4761 60.4459 30.248C60.4657 30.0098 60.4806 29.7568 60.4905 29.489C60.5104 29.2211 60.5203 28.9135 60.5203 28.5663C60.5203 27.9511 60.3814 27.4997 60.1036 27.212C59.8258 26.9243 59.4041 26.7804 58.8386 26.7804C58.3029 26.7804 57.8514 26.9144 57.4843 27.1822C57.1173 27.4402 56.7601 27.8073 56.4128 28.2835V33.5667H55.5943V28.3133C55.5943 27.9164 55.5447 27.5741 55.4455 27.2864C55.3463 26.9987 55.1975 26.7506 54.999 26.5423L55.505 26.0512C55.7431 26.2199 55.9267 26.4282 56.0557 26.6762C56.1846 26.9144 56.2739 27.1624 56.3235 27.4203C56.6509 26.9441 57.023 26.5919 57.4397 26.3637C57.8663 26.1256 58.3326 26.0065 58.8386 26.0065C59.7117 26.0065 60.3467 26.2149 60.7435 26.6316C61.1404 27.0483 61.3388 27.6386 61.3388 28.4026C61.3388 28.7597 61.3289 29.0871 61.3091 29.3848C61.2991 29.6725 61.2843 29.9454 61.2644 30.2033C61.2545 30.4613 61.2446 30.7093 61.2346 30.9474C61.2247 31.1855 61.2198 31.4236 61.2198 31.6618C61.2198 31.9892 61.2446 32.3017 61.2942 32.5993C61.3438 32.897 61.438 33.2194 61.5769 33.5667H60.7882Z" fill="#176B87"/>
<path d="M63.7181 26.0512C63.9066 26.1901 64.0554 26.3488 64.1646 26.5274C64.2836 26.6961 64.3779 26.8796 64.4473 27.0781C64.5168 27.2765 64.5614 27.4799 64.5813 27.6882C64.611 27.8966 64.6259 28.1049 64.6259 28.3133V33.5667H63.8074V28.3133C63.8074 27.9164 63.7578 27.5741 63.6586 27.2864C63.5594 26.9987 63.4105 26.7506 63.2121 26.5423L63.7181 26.0512ZM63.4056 23.7147C63.4056 23.5163 63.4701 23.3526 63.599 23.2236C63.7379 23.0847 63.9017 23.0152 64.0902 23.0152C64.2886 23.0152 64.4523 23.0847 64.5813 23.2236C64.7202 23.3526 64.7896 23.5163 64.7896 23.7147C64.7896 23.9032 64.7202 24.0669 64.5813 24.2058C64.4523 24.3348 64.2886 24.3993 64.0902 24.3993C63.9017 24.3993 63.7379 24.3348 63.599 24.2058C63.4701 24.0669 63.4056 23.9032 63.4056 23.7147Z" fill="#176B87"/>
<path d="M72.6374 33.6857C72.3894 33.5071 72.2009 33.2988 72.0719 33.0607C71.9528 32.8126 71.8685 32.5497 71.8189 32.2719C71.1938 33.2343 70.3753 33.7155 69.3633 33.7155C68.5002 33.7155 67.8801 33.5071 67.5031 33.0904C67.126 32.6737 66.9375 32.0834 66.9375 31.3195C66.9375 30.9623 66.9425 30.6399 66.9524 30.3521C66.9623 30.0545 66.9723 29.7767 66.9822 29.5187C67.002 29.2608 67.0169 29.0127 67.0268 28.7746C67.0467 28.5365 67.0566 28.2984 67.0566 28.0603C67.0566 27.7726 67.0318 27.4799 66.9822 27.1822C66.9425 26.8846 66.8582 26.5919 66.7292 26.3042L67.4435 26.0661C67.5328 26.205 67.6023 26.3637 67.6519 26.5423C67.7114 26.7209 67.7561 26.9044 67.7858 27.0929C67.8255 27.2814 67.8503 27.47 67.8602 27.6585C67.8701 27.837 67.8751 28.0007 67.8751 28.1496C67.8751 28.3877 67.8652 28.6159 67.8453 28.8342C67.8354 29.0425 67.8205 29.2608 67.8007 29.489C67.7908 29.7172 67.7809 29.9652 67.7709 30.2331C67.761 30.501 67.7561 30.8085 67.7561 31.1558C67.7561 31.7709 67.8801 32.2223 68.1281 32.51C68.3861 32.7978 68.7978 32.9416 69.3633 32.9416C69.8892 32.9416 70.3307 32.8077 70.6878 32.5398C71.045 32.262 71.3972 31.885 71.7445 31.4088V26.1554H72.563V31.4236C72.563 32.1876 72.7565 32.7779 73.1434 33.1946L72.6374 33.6857Z" fill="#176B87"/>
<path d="M74.827 32.2273C75.085 32.3959 75.3975 32.5596 75.7646 32.7184C76.1416 32.8672 76.5683 32.9416 77.0445 32.9416C77.2528 32.9416 77.4513 32.9218 77.6398 32.8821C77.8382 32.8325 78.0118 32.763 78.1607 32.6737C78.3095 32.5745 78.4236 32.4456 78.5029 32.2868C78.5922 32.1281 78.6369 31.9346 78.6369 31.7064C78.6369 31.3592 78.5426 31.0863 78.3541 30.8879C78.1656 30.6895 77.9275 30.5258 77.6398 30.3968C77.362 30.2579 77.0594 30.1339 76.732 30.0247C76.4046 29.9156 76.097 29.7767 75.8093 29.608C75.5315 29.4294 75.2983 29.2012 75.1098 28.9234C74.9213 28.6456 74.827 28.2736 74.827 27.8073C74.827 27.5692 74.8767 27.341 74.9759 27.1227C75.0751 26.9044 75.2189 26.7159 75.4075 26.5572C75.596 26.3885 75.8242 26.2546 76.092 26.1554C76.3599 26.0561 76.6625 26.0065 76.9998 26.0065C77.2975 26.0065 77.5852 26.0165 77.863 26.0363C78.1408 26.0462 78.4484 26.0661 78.7857 26.0958V26.8697C78.0118 26.8102 77.3818 26.7804 76.8957 26.7804C76.5087 26.7804 76.2111 26.8846 76.0027 27.0929C75.7944 27.3013 75.6902 27.5394 75.6902 27.8073C75.6902 28.1545 75.7845 28.4274 75.973 28.6258C76.1615 28.8143 76.3946 28.978 76.6724 29.1169C76.9602 29.2459 77.2677 29.3699 77.5951 29.489C77.9225 29.5981 78.2251 29.742 78.5029 29.9205C78.7907 30.0892 79.0288 30.3124 79.2173 30.5902C79.4058 30.868 79.5 31.2401 79.5 31.7064C79.5 32.0735 79.4256 32.386 79.2768 32.644C79.1379 32.892 78.9444 33.0954 78.6964 33.2541C78.4583 33.4129 78.1855 33.527 77.8779 33.5964C77.5703 33.6758 77.2528 33.7155 76.9254 33.7155C76.4294 33.7155 75.9631 33.6312 75.5265 33.4625C75.09 33.2938 74.7179 33.0904 74.4104 32.8523L74.827 32.2273Z" fill="#176B87"/>
<path d="M33.9701 26.8995C33.8808 26.8895 33.7816 26.8747 33.6724 26.8548C33.5831 26.835 33.479 26.8201 33.3599 26.8102C33.2508 26.8003 33.1268 26.7953 32.9879 26.7953C32.5811 26.7953 32.214 26.9243 31.8866 27.1822C31.5592 27.4402 31.2665 27.7974 31.0085 28.2537V33.5667H30.19V28.3133C30.19 27.9164 30.1404 27.5741 30.0412 27.2864C29.942 26.9987 29.7932 26.7506 29.5947 26.5423L30.1007 26.0512C30.3289 26.2199 30.5075 26.4183 30.6365 26.6465C30.7655 26.8647 30.8597 27.1029 30.9192 27.3608C31.1772 26.9044 31.4798 26.5671 31.827 26.3488C32.1743 26.1206 32.596 26.0065 33.092 26.0065C33.2012 26.0065 33.3103 26.0115 33.4194 26.0214C33.5286 26.0313 33.6228 26.0462 33.7022 26.0661C33.8014 26.0859 33.8907 26.1058 33.9701 26.1256V26.8995Z" stroke="#176B87"/>
<path d="M38.4307 33.7155C37.8751 33.7155 37.3691 33.6212 36.9127 33.4327C36.4563 33.2442 36.0644 32.9813 35.737 32.644C35.4195 32.2967 35.1715 31.89 34.9929 31.4236C34.8143 30.9573 34.725 30.4464 34.725 29.8908C34.725 29.3352 34.8143 28.8242 34.9929 28.3579C35.1715 27.8817 35.4195 27.47 35.737 27.1227C36.0644 26.7755 36.4563 26.5026 36.9127 26.3042C37.3691 26.1058 37.8751 26.0065 38.4307 26.0065C38.9863 26.0065 39.4873 26.1058 39.9338 26.3042C40.3901 26.4927 40.7771 26.7606 41.0946 27.1078C41.422 27.4451 41.675 27.8519 41.8536 28.3282C42.0321 28.7945 42.1214 29.3005 42.1214 29.8461C42.1214 30.4017 42.0321 30.9177 41.8536 31.3939C41.675 31.8701 41.422 32.2818 41.0946 32.6291C40.7771 32.9664 40.3901 33.2343 39.9338 33.4327C39.4873 33.6212 38.9863 33.7155 38.4307 33.7155ZM38.4307 26.7804C37.9941 26.7804 37.6022 26.8548 37.255 27.0036C36.9077 27.1525 36.6051 27.3608 36.3472 27.6287C36.0991 27.8966 35.9057 28.219 35.7667 28.596C35.6378 28.9731 35.5733 29.3898 35.5733 29.8461C35.5733 30.3124 35.6378 30.7391 35.7667 31.126C35.9057 31.503 36.0991 31.8255 36.3472 32.0933C36.6051 32.3612 36.9077 32.5696 37.255 32.7184C37.6022 32.8672 37.9941 32.9416 38.4307 32.9416C38.8573 32.9416 39.2442 32.8672 39.5915 32.7184C39.9486 32.5596 40.2512 32.3463 40.4993 32.0785C40.7473 31.8007 40.9358 31.4733 41.0648 31.0962C41.2037 30.7093 41.2731 30.2827 41.2731 29.8164C41.2731 29.36 41.2037 28.9482 41.0648 28.5812C40.9358 28.2041 40.7473 27.8817 40.4993 27.6138C40.2512 27.3459 39.9486 27.1425 39.5915 27.0036C39.2442 26.8548 38.8573 26.7804 38.4307 26.7804Z" stroke="#176B87"/>
<path d="M47.6379 33.6857C47.38 33.7453 47.1468 33.775 46.9385 33.775C46.621 33.775 46.3432 33.7155 46.1051 33.5964C45.8769 33.4873 45.6785 33.3385 45.5098 33.15C45.351 32.9615 45.2171 32.7482 45.108 32.51C45.0088 32.2719 44.9294 32.0239 44.8699 31.7659L43.5305 26.3042L44.3341 26.081L45.6735 31.5427C45.7727 31.9693 45.9215 32.3166 46.12 32.5845C46.3184 32.8523 46.6061 33.0111 46.9831 33.0607L48.2481 29.3848V26.1554H49.0815V29.3848L49.8405 31.5427C49.9794 31.9495 50.1381 32.2918 50.3167 32.5696C50.5052 32.8374 50.7731 32.9962 51.1204 33.0458L52.9658 26.081L53.7396 26.3339L51.8049 33.6857C51.547 33.7453 51.3138 33.775 51.1055 33.775C50.8078 33.775 50.5449 33.7155 50.3167 33.5964C50.0885 33.4774 49.8901 33.3236 49.7214 33.1351C49.5627 32.9466 49.4238 32.7333 49.3047 32.4952C49.1956 32.257 49.1063 32.014 49.0369 31.7659L48.6499 30.501L47.6379 33.6857Z" stroke="#176B87"/>
<path d="M60.7882 33.5667C60.6294 33.269 60.5253 32.9367 60.4757 32.5696C60.4261 32.1926 60.4012 31.8602 60.4012 31.5725C60.4012 31.3344 60.4062 31.1111 60.4161 30.9028C60.426 30.6944 60.436 30.4761 60.4459 30.248C60.4657 30.0098 60.4806 29.7568 60.4905 29.489C60.5104 29.2211 60.5203 28.9135 60.5203 28.5663C60.5203 27.9511 60.3814 27.4997 60.1036 27.212C59.8258 26.9243 59.4041 26.7804 58.8386 26.7804C58.3029 26.7804 57.8514 26.9144 57.4843 27.1822C57.1173 27.4402 56.7601 27.8073 56.4128 28.2835V33.5667H55.5943V28.3133C55.5943 27.9164 55.5447 27.5741 55.4455 27.2864C55.3463 26.9987 55.1975 26.7506 54.999 26.5423L55.505 26.0512C55.7431 26.2199 55.9267 26.4282 56.0557 26.6762C56.1846 26.9144 56.2739 27.1624 56.3235 27.4203C56.6509 26.9441 57.023 26.5919 57.4397 26.3637C57.8663 26.1256 58.3326 26.0065 58.8386 26.0065C59.7117 26.0065 60.3467 26.2149 60.7435 26.6316C61.1404 27.0483 61.3388 27.6386 61.3388 28.4026C61.3388 28.7597 61.3289 29.0871 61.3091 29.3848C61.2991 29.6725 61.2843 29.9454 61.2644 30.2033C61.2545 30.4613 61.2446 30.7093 61.2346 30.9474C61.2247 31.1855 61.2198 31.4236 61.2198 31.6618C61.2198 31.9892 61.2446 32.3017 61.2942 32.5993C61.3438 32.897 61.438 33.2194 61.5769 33.5667H60.7882Z" stroke="#176B87"/>
<path d="M63.7181 26.0512C63.9066 26.1901 64.0554 26.3488 64.1646 26.5274C64.2836 26.6961 64.3779 26.8796 64.4473 27.0781C64.5168 27.2765 64.5614 27.4799 64.5813 27.6882C64.611 27.8966 64.6259 28.1049 64.6259 28.3133V33.5667H63.8074V28.3133C63.8074 27.9164 63.7578 27.5741 63.6586 27.2864C63.5594 26.9987 63.4105 26.7506 63.2121 26.5423L63.7181 26.0512ZM63.4056 23.7147C63.4056 23.5163 63.4701 23.3526 63.599 23.2236C63.7379 23.0847 63.9017 23.0152 64.0902 23.0152C64.2886 23.0152 64.4523 23.0847 64.5813 23.2236C64.7202 23.3526 64.7896 23.5163 64.7896 23.7147C64.7896 23.9032 64.7202 24.0669 64.5813 24.2058C64.4523 24.3348 64.2886 24.3993 64.0902 24.3993C63.9017 24.3993 63.7379 24.3348 63.599 24.2058C63.4701 24.0669 63.4056 23.9032 63.4056 23.7147Z" stroke="#176B87"/>
<path d="M72.6374 33.6857C72.3894 33.5071 72.2009 33.2988 72.0719 33.0607C71.9528 32.8126 71.8685 32.5497 71.8189 32.2719C71.1938 33.2343 70.3753 33.7155 69.3633 33.7155C68.5002 33.7155 67.8801 33.5071 67.5031 33.0904C67.126 32.6737 66.9375 32.0834 66.9375 31.3195C66.9375 30.9623 66.9425 30.6399 66.9524 30.3521C66.9623 30.0545 66.9723 29.7767 66.9822 29.5187C67.002 29.2608 67.0169 29.0127 67.0268 28.7746C67.0467 28.5365 67.0566 28.2984 67.0566 28.0603C67.0566 27.7726 67.0318 27.4799 66.9822 27.1822C66.9425 26.8846 66.8582 26.5919 66.7292 26.3042L67.4435 26.0661C67.5328 26.205 67.6023 26.3637 67.6519 26.5423C67.7114 26.7209 67.7561 26.9044 67.7858 27.0929C67.8255 27.2814 67.8503 27.47 67.8602 27.6585C67.8701 27.837 67.8751 28.0007 67.8751 28.1496C67.8751 28.3877 67.8652 28.6159 67.8453 28.8342C67.8354 29.0425 67.8205 29.2608 67.8007 29.489C67.7908 29.7172 67.7809 29.9652 67.7709 30.2331C67.761 30.501 67.7561 30.8085 67.7561 31.1558C67.7561 31.7709 67.8801 32.2223 68.1281 32.51C68.3861 32.7978 68.7978 32.9416 69.3633 32.9416C69.8892 32.9416 70.3307 32.8077 70.6878 32.5398C71.045 32.262 71.3972 31.885 71.7445 31.4088V26.1554H72.563V31.4236C72.563 32.1876 72.7565 32.7779 73.1434 33.1946L72.6374 33.6857Z" stroke="#176B87"/>
<path d="M74.827 32.2273C75.085 32.3959 75.3975 32.5596 75.7646 32.7184C76.1416 32.8672 76.5683 32.9416 77.0445 32.9416C77.2528 32.9416 77.4513 32.9218 77.6398 32.8821C77.8382 32.8325 78.0118 32.763 78.1607 32.6737C78.3095 32.5745 78.4236 32.4456 78.5029 32.2868C78.5922 32.1281 78.6369 31.9346 78.6369 31.7064C78.6369 31.3592 78.5426 31.0863 78.3541 30.8879C78.1656 30.6895 77.9275 30.5258 77.6398 30.3968C77.362 30.2579 77.0594 30.1339 76.732 30.0247C76.4046 29.9156 76.097 29.7767 75.8093 29.608C75.5315 29.4294 75.2983 29.2012 75.1098 28.9234C74.9213 28.6456 74.827 28.2736 74.827 27.8073C74.827 27.5692 74.8767 27.341 74.9759 27.1227C75.0751 26.9044 75.2189 26.7159 75.4075 26.5572C75.596 26.3885 75.8242 26.2546 76.092 26.1554C76.3599 26.0561 76.6625 26.0065 76.9998 26.0065C77.2975 26.0065 77.5852 26.0165 77.863 26.0363C78.1408 26.0462 78.4484 26.0661 78.7857 26.0958V26.8697C78.0118 26.8102 77.3818 26.7804 76.8957 26.7804C76.5087 26.7804 76.2111 26.8846 76.0027 27.0929C75.7944 27.3013 75.6902 27.5394 75.6902 27.8073C75.6902 28.1545 75.7845 28.4274 75.973 28.6258C76.1615 28.8143 76.3946 28.978 76.6724 29.1169C76.9602 29.2459 77.2677 29.3699 77.5951 29.489C77.9225 29.5981 78.2251 29.742 78.5029 29.9205C78.7907 30.0892 79.0288 30.3124 79.2173 30.5902C79.4058 30.868 79.5 31.2401 79.5 31.7064C79.5 32.0735 79.4256 32.386 79.2768 32.644C79.1379 32.892 78.9444 33.0954 78.6964 33.2541C78.4583 33.4129 78.1855 33.527 77.8779 33.5964C77.5703 33.6758 77.2528 33.7155 76.9254 33.7155C76.4294 33.7155 75.9631 33.6312 75.5265 33.4625C75.09 33.2938 74.7179 33.0904 74.4104 32.8523L74.827 32.2273Z" stroke="#176B87"/>
</svg>
