<svg width="9" height="15" viewBox="0 0 9 15" fill="none" xmlns="http://www.w3.org/2000/svg">
<path d="M8.71277 6.05403V15H7.77128V9.8358C7.50532 10.2066 7.13298 10.5244 6.65426 10.7892C6.18617 11.054 5.55319 11.1864 4.75532 11.1864C3.92553 11.1864 3.20745 11.0434 2.60106 10.7574C2.00532 10.4714 1.51596 10.0794 1.13298 9.58157C0.75 9.07309 0.462766 8.47987 0.271277 7.80191C0.0904255 7.11335 0 6.37712 0 5.59322C0 4.79873 0.12766 4.0625 0.382979 3.38453C0.638298 2.70657 1 2.11864 1.46809 1.62076C1.94681 1.11229 2.51596 0.715042 3.17553 0.429025C3.83511 0.143008 4.57447 0 5.39362 0C6.54255 0 7.43085 0.201271 8.05851 0.603813C8.68617 1.00636 9 1.54131 9 2.20869C9 2.5053 8.93617 2.78072 8.80851 3.03496C8.68085 3.2786 8.4734 3.49576 8.18617 3.68644C7.90957 3.86653 7.55319 4.00953 7.11702 4.11547C6.68085 4.2108 6.15957 4.25847 5.55319 4.25847H1.11702C1.02128 4.67161 0.973404 5.11653 0.973404 5.59322C0.973404 6.29237 1.05319 6.93326 1.21277 7.51589C1.37234 8.08792 1.60638 8.58051 1.91489 8.99364C2.23404 9.40678 2.62766 9.72987 3.09574 9.96292C3.57447 10.196 4.12766 10.3125 4.75532 10.3125C5.45745 10.3125 6.01064 10.1907 6.41489 9.94703C6.81915 9.6928 7.12234 9.40148 7.32447 9.07309C7.5266 8.7447 7.64894 8.42161 7.69149 8.10381C7.74468 7.77542 7.77128 7.53178 7.77128 7.37288V6.05403H8.71277ZM5.39362 0.87394C4.43617 0.87394 3.6117 1.10169 2.92021 1.5572C2.23936 2.01271 1.72872 2.63771 1.3883 3.4322H5.55319C6.03191 3.4322 6.42553 3.40572 6.73404 3.35275C7.05319 3.29979 7.30319 3.22034 7.48404 3.11441C7.67553 3.00847 7.80851 2.88136 7.88298 2.73305C7.95745 2.57415 7.99468 2.39936 7.99468 2.20869C7.99468 1.76377 7.76064 1.43008 7.29255 1.20763C6.82447 0.985169 6.19149 0.87394 5.39362 0.87394Z" fill="white"/>
</svg>
