<svg width="17" height="17" viewBox="0 0 17 17" fill="none" xmlns="http://www.w3.org/2000/svg">
<path d="M7.68426 9.31484C7.54094 9.17178 7.37014 9.05922 7.18214 8.98395L1.23533 6.59923C1.16432 6.57074 1.10373 6.52121 1.06169 6.45729C1.01965 6.39337 0.998164 6.31812 1.00012 6.24164C1.00208 6.16516 1.02739 6.09111 1.07265 6.02942C1.11791 5.96774 1.18096 5.92138 1.25332 5.89656L15.5017 1.02212C15.5681 0.99812 15.64 0.99354 15.709 1.00892C15.778 1.02429 15.8411 1.05899 15.8911 1.10894C15.941 1.1589 15.9757 1.22205 15.9911 1.29101C16.0065 1.35996 16.0019 1.43187 15.9779 1.49832L11.1034 15.7467C11.0786 15.819 11.0323 15.8821 10.9706 15.9274C10.9089 15.9726 10.8348 15.9979 10.7584 15.9999C10.6819 16.0018 10.6066 15.9804 10.5427 15.9383C10.4788 15.8963 10.4293 15.8357 10.4008 15.7647L8.01605 9.81636C7.94044 9.6285 7.82758 9.4579 7.68426 9.31484ZM7.68426 9.31484L15.8886 1.11211" stroke="white" stroke-width="1.5" stroke-linecap="round" stroke-linejoin="round"/>
</svg>
